# xmcd CD database file
#
# Track frame offsets:
#	150
#	24900
#	32813
#	50135
#	84658
#	103861
#	120116
#	147929
#	174629
#	196689
#	219599
#	261874
#
# Disc length: 4294 seconds
#
# Revision: 5
# Processed by: cddbd v1.5.2PL0 Copyright (c) Steve Scherf et al.
# Submitted via: CDex 1.70beta2
#
DISCID=a310c40c
DTITLE=Ruben "Chivo" Gonzalez - (fuera de) CATALOGO
DYEAR=2003
DGENRE=Jazz
TTITLE0=Blues pal Beni
TTITLE1=Corriendo, un poco tarde
TTITLE2=HuVo and ChiGo
TTITLE3=Juanita y Pepe
TTITLE4=Chimen Tabas
TTITLE5=Juego de ninos
TTITLE6=Cuatro mujeres y el
TTITLE7=Fatto in Montevideo
TTITLE8=Sin firma (tion)
TTITLE9=La casa de la abuela
TTITLE10=Casi lo que quiero decir
TTITLE11=Track multimedia
EXTD=YEAR: 2003
EXTT0=
EXTT1=
EXTT2=
EXTT3=
EXTT4=
EXTT5=
EXTT6=
EXTT7=
EXTT8=
EXTT9=
EXTT10=
EXTT11=
PLAYORDER=
